<svg width="70" height="55" viewBox="0 0 70 55" fill="none" xmlns="http://www.w3.org/2000/svg">
<g clip-path="url(#clip0_42_2075)">
<path d="M58.4486 43.1966C58.4486 46.2714 58.4486 49.2967 58.4486 52.3715C58.4486 54.1073 57.7082 54.9504 55.931 54.9504C51.735 54.9008 47.5389 54.9008 43.3429 54.9504C41.4176 55 40.6771 54.0577 40.6771 52.2227C40.7265 48.8999 40.6278 45.6267 40.6771 42.3039C40.7265 40.2209 39.9366 39.229 37.7646 39.3778C35.79 39.5266 33.8154 39.477 31.8407 39.3778C29.8661 39.2786 29.2244 40.1713 29.2244 42.0559C29.2737 45.3787 29.2244 48.6519 29.2737 51.9747C29.3231 54.0577 28.4839 55 26.3118 54.9504C22.2639 54.8512 18.2653 54.8512 14.2173 54.9504C12.1933 55 11.3541 54.1073 11.3541 52.1235C11.3541 46.1722 11.3048 40.2209 11.4035 34.2696C11.4035 33.4265 11.9959 32.385 12.687 31.8395C19.4007 26.2353 26.1637 20.7304 32.8774 15.0766C34.309 13.8368 35.4938 13.7872 36.9747 15.027C43.639 20.6312 50.4515 26.1857 57.0664 31.8395C57.8069 32.4842 58.3005 33.7241 58.3499 34.7655C58.5474 37.5924 58.4486 40.3697 58.4486 43.1966Z" fill="white"/>
<path d="M49.3654 10.266C49.3654 7.33992 49.4148 5.05858 49.3654 2.77725C49.316 0.892666 50.0071 -3.00445e-05 51.9324 0.0495642C53.5615 0.0991584 55.2399 0.0991584 56.8689 0.0495642C58.7942 -3.00445e-05 59.4853 0.892666 59.4359 2.77725C59.3866 7.38951 59.3372 12.0514 59.4853 16.6636C59.5347 17.8043 60.2258 19.1433 61.065 19.8873C63.5332 22.1686 66.2483 24.202 68.8647 26.3345C70.1482 27.376 70.3457 28.3679 69.2596 29.6573C65.1129 34.468 66.3964 34.8151 61.3612 30.6492C53.2159 23.8548 45.0706 17.1596 37.0241 10.3652C35.4444 9.02612 34.309 9.12531 32.7787 10.4148C24.1397 17.7051 15.4021 24.7971 6.81251 32.137C4.88726 33.7736 3.80123 33.6745 2.2709 31.7403C-0.789748 27.8223 -0.888479 27.9215 3.01138 24.6979C11.9465 17.2588 20.8816 9.86922 29.8661 2.47968C33.7166 -0.743944 36.0368 -0.743944 39.8379 2.43009C42.8492 4.8602 45.8111 7.33992 49.3654 10.266Z" fill="white"/>
</g>
<defs>
<clipPath id="clip0_42_2075">
<rect width="70" height="55" fill="white"/>
</clipPath>
</defs>
</svg>
