<svg width="64" height="48" viewBox="0 0 64 48" fill="none" xmlns="http://www.w3.org/2000/svg">
<g clip-path="url(#clip0_42_2071)">
<path d="M32.0505 0C40.1262 0 48.2019 0 56.2777 0C61.8297 0 64.2524 2.47579 63.8991 7.93263C63.7982 9.09474 63.142 10.6105 62.2335 11.3179C53.9054 17.6337 45.5773 23.8484 37.0978 29.9621C32.959 32.9432 30.7382 32.7916 26.3975 29.6084C18.3218 23.6968 10.3471 17.6337 2.22088 11.7726C-0.403729 9.90316 -0.0504164 7.42737 0.252423 5.0021C0.504789 2.67789 2.01898 1.06105 4.34075 0.454737C5.55211 0.151579 6.81394 0.0505263 8.07577 0C16.0505 0 24.0758 0 32.0505 0Z" fill="white"/>
<path d="M0.403885 15.36C1.51429 16.0674 2.22092 16.4716 2.87707 16.9263C9.64048 21.9284 16.4039 26.9305 23.1673 31.9326C24.1263 32.64 25.1357 33.2463 26.0947 33.9032C30.2335 36.6821 34.3219 36.48 38.3092 33.7011C43.2556 30.2147 48.101 26.5769 52.9969 22.9895C56.3786 20.5137 59.7099 18.0379 63.5458 15.2084C63.7477 16.5221 64.0001 17.3811 64.0001 18.1895C64.0506 25.8695 64.0506 33.5495 64.0001 41.179C64.0001 45.5748 61.6783 47.899 57.3376 47.899C40.3282 47.899 23.3692 47.899 6.35972 47.899C2.57423 48 0.101046 45.6253 0.101046 41.9369C0.0505726 33.8526 0.101046 25.7684 0.101046 17.6842C0.101046 17.1284 0.252465 16.5726 0.403885 15.36Z" fill="white"/>
</g>
<defs>
<clipPath id="clip0_42_2071">
<rect width="64" height="48" fill="white"/>
</clipPath>
</defs>
</svg>
