<svg width="17" height="16" viewBox="0 0 17 16" fill="none" xmlns="http://www.w3.org/2000/svg">
<path d="M12.6702 1.13601C13.3848 1.13601 13.9928 1.39201 14.4942 1.90401C14.9955 2.41601 15.2462 3.01868 15.2462 3.71201V12.288C15.2462 12.992 14.9955 13.5947 14.4942 14.096C13.9928 14.5973 13.3848 14.8533 12.6702 14.864H11.0062V9.53601H12.7822L13.0382 7.47201H11.0062V6.14401C11.0062 5.81335 11.0755 5.56801 11.2142 5.40801C11.3528 5.24801 11.6248 5.16268 12.0302 5.15201L13.1182 5.13601V3.29601C12.7448 3.24268 12.2115 3.21601 11.5182 3.21601C10.7182 3.21601 10.0728 3.45068 9.58218 3.92001C9.09151 4.38935 8.85151 5.06668 8.86218 5.95201V7.47201H7.07018V9.53601H8.86218V14.864H4.11018C3.39551 14.864 2.78751 14.608 2.28618 14.096C1.78485 13.584 1.53418 12.9813 1.53418 12.288V3.71201C1.53418 3.00801 1.78485 2.40535 2.28618 1.90401C2.78751 1.40268 3.39551 1.14668 4.11018 1.13601H12.6702Z" fill="white"/>
</svg>
