<svg width="17" height="16" viewBox="0 0 17 16" fill="none" xmlns="http://www.w3.org/2000/svg">
<path d="M11.2302 8.00001C11.2302 7.37068 11.0116 6.83201 10.5742 6.38401C10.1369 5.93601 9.59824 5.71201 8.95824 5.71201C8.31824 5.71201 7.77957 5.93601 7.34224 6.38401C6.90491 6.83201 6.68091 7.37068 6.67024 8.00001C6.65957 8.62935 6.88357 9.16801 7.34224 9.61601C7.80091 10.064 8.33957 10.288 8.95824 10.288C9.57691 10.288 10.1156 10.064 10.5742 9.61601C11.0329 9.16801 11.2516 8.62935 11.2302 8.00001ZM12.4622 8.00001C12.4622 8.97068 12.1209 9.80268 11.4382 10.496C10.7556 11.1893 9.92891 11.5307 8.95824 11.52C7.98757 11.5093 7.15557 11.168 6.46224 10.496C5.76891 9.82401 5.42757 8.99201 5.43824 8.00001C5.4489 7.00801 5.79024 6.17601 6.46224 5.50401C7.13424 4.83201 7.96624 4.49068 8.95824 4.48001C9.95024 4.46935 10.7769 4.81068 11.4382 5.50401C12.0996 6.19735 12.4409 7.02935 12.4622 8.00001ZM13.4382 4.33601C13.4382 4.56001 13.3582 4.75201 13.1982 4.91201C13.0382 5.07201 12.8409 5.15201 12.6062 5.15201C12.3716 5.15201 12.1796 5.07201 12.0302 4.91201C11.8809 4.75201 11.8009 4.56001 11.7902 4.33601C11.7796 4.11201 11.8596 3.92001 12.0302 3.76001C12.2009 3.60001 12.3929 3.52001 12.6062 3.52001C12.8196 3.52001 13.0169 3.60001 13.1982 3.76001C13.3796 3.92001 13.4596 4.11201 13.4382 4.33601ZM8.95824 2.36801C8.91557 2.36801 8.68624 2.36801 8.27024 2.36801H7.32624C7.11291 2.36801 6.82491 2.37868 6.46224 2.40001C6.09957 2.42135 5.79557 2.44801 5.55024 2.48001C5.30491 2.51201 5.09157 2.57068 4.91024 2.65601C4.61157 2.77335 4.35024 2.94401 4.12624 3.16801C3.90224 3.39201 3.72624 3.65335 3.59824 3.95201C3.53424 4.12268 3.48091 4.33601 3.43824 4.59201C3.39557 4.84801 3.36357 5.15735 3.34224 5.52001C3.3209 5.88268 3.31557 6.16535 3.32624 6.36801C3.33691 6.57068 3.33691 6.88535 3.32624 7.31201C3.31557 7.73868 3.31557 7.96801 3.32624 8.00001C3.33691 8.03201 3.33691 8.26135 3.32624 8.68801C3.31557 9.11468 3.31557 9.42935 3.32624 9.63201C3.33691 9.83468 3.34224 10.1173 3.34224 10.48C3.34224 10.8427 3.37424 11.152 3.43824 11.408L3.59824 12.048C3.72624 12.3467 3.90224 12.608 4.12624 12.832C4.35024 13.056 4.61157 13.2267 4.91024 13.344C5.08091 13.408 5.29424 13.4667 5.55024 13.52C5.80624 13.5733 6.11024 13.6 6.46224 13.6C6.81424 13.6 7.10224 13.6107 7.32624 13.632C7.55024 13.6533 7.86491 13.6533 8.27024 13.632C8.67557 13.6107 8.90491 13.6107 8.95824 13.632C9.01157 13.6533 9.23557 13.6533 9.63024 13.632C10.0249 13.6107 10.3396 13.6107 10.5742 13.632C10.8089 13.6533 11.0969 13.6427 11.4382 13.6C11.7796 13.5573 12.0889 13.5307 12.3662 13.52C12.6436 13.5093 12.8516 13.4507 12.9902 13.344C13.2889 13.2267 13.5556 13.056 13.7902 12.832C14.0249 12.608 14.1956 12.3467 14.3022 12.048C14.3662 11.8773 14.4196 11.664 14.4622 11.408C14.5049 11.152 14.5369 10.8427 14.5582 10.48C14.5796 10.1173 14.5849 9.83468 14.5742 9.63201C14.5636 9.42935 14.5636 9.11468 14.5742 8.68801C14.5849 8.26135 14.5849 8.03201 14.5742 8.00001C14.5636 7.96801 14.5636 7.73868 14.5742 7.31201C14.5849 6.88535 14.5849 6.57068 14.5742 6.36801C14.5636 6.16535 14.5582 5.88268 14.5582 5.52001C14.5582 5.15735 14.5262 4.84801 14.4622 4.59201L14.3022 3.95201C14.1849 3.65335 14.0142 3.39201 13.7902 3.16801C13.5662 2.94401 13.2996 2.77335 12.9902 2.65601C12.8196 2.59201 12.6116 2.53335 12.3662 2.48001C12.1209 2.42668 11.8116 2.40001 11.4382 2.40001C11.0649 2.40001 10.7769 2.38935 10.5742 2.36801C10.3716 2.34668 10.0569 2.34668 9.63024 2.36801C9.20357 2.38935 8.97957 2.38935 8.95824 2.36801ZM15.8062 8.00001C15.8062 9.36535 15.7902 10.3093 15.7582 10.832C15.7049 12.0693 15.3369 13.0293 14.6542 13.712C13.9716 14.3947 13.0169 14.7627 11.7902 14.816C11.2569 14.848 10.3129 14.864 8.95824 14.864C7.60357 14.864 6.65957 14.848 6.12624 14.816C4.88891 14.752 3.92891 14.384 3.24624 13.712C2.56357 13.04 2.19557 12.08 2.14224 10.832C2.11024 10.3093 2.09424 9.36535 2.09424 8.00001C2.09424 6.63468 2.11024 5.69068 2.14224 5.16801C2.19557 3.93068 2.56357 2.97068 3.24624 2.28801C3.92891 1.60535 4.88891 1.23735 6.12624 1.18401C6.64891 1.15201 7.59291 1.13601 8.95824 1.13601C10.3236 1.13601 11.2676 1.15201 11.7902 1.18401C13.0276 1.24801 13.9822 1.61601 14.6542 2.28801C15.3262 2.96001 15.6942 3.92001 15.7582 5.16801C15.7902 5.69068 15.8062 6.63468 15.8062 8.00001Z" fill="white"/>
</svg>
