<svg width="17" height="16" viewBox="0 0 17 16" fill="none" xmlns="http://www.w3.org/2000/svg">
<path d="M4.02606 12.624H6.09006V6.43201H4.02606V12.624ZM6.23406 4.51201C6.2234 4.20268 6.1114 3.94668 5.89806 3.74401C5.68473 3.54135 5.41273 3.44001 5.08206 3.44001C4.7514 3.44001 4.46873 3.54135 4.23406 3.74401C3.9994 3.94668 3.88473 4.20268 3.89006 4.51201C3.8954 4.82135 4.00473 5.07735 4.21806 5.28001C4.4314 5.48268 4.70873 5.58401 5.05006 5.58401C5.40206 5.58401 5.68473 5.48268 5.89806 5.28001C6.1114 5.07735 6.2234 4.82135 6.23406 4.51201ZM11.4501 12.624H13.5141V9.07201C13.5141 8.15468 13.2954 7.46135 12.8581 6.99201C12.4207 6.52268 11.8501 6.28801 11.1461 6.28801C10.3354 6.28801 9.7114 6.63468 9.27406 7.32801H9.29006V6.43201H7.22606C7.2474 6.82668 7.2474 8.89068 7.22606 12.624H9.29006V9.15201C9.29006 8.92801 9.3114 8.76268 9.35406 8.65601C9.4394 8.45335 9.57273 8.27735 9.75406 8.12801C9.9354 7.97868 10.1541 7.90401 10.4101 7.90401C11.1034 7.90401 11.4501 8.37335 11.4501 9.31201V12.624ZM15.6261 3.71201V12.288C15.6261 12.992 15.3754 13.5947 14.8741 14.096C14.3727 14.5973 13.7647 14.8533 13.0501 14.864H4.49006C3.7754 14.864 3.1674 14.608 2.66606 14.096C2.16473 13.584 1.91406 12.9813 1.91406 12.288V3.71201C1.91406 3.00801 2.16473 2.40535 2.66606 1.90401C3.1674 1.40268 3.7754 1.14668 4.49006 1.13601H13.0501C13.7647 1.13601 14.3727 1.39201 14.8741 1.90401C15.3754 2.41601 15.6261 3.01868 15.6261 3.71201Z" fill="white"/>
</svg>
