<svg width="13" height="18" viewBox="0 0 13 18" fill="none" xmlns="http://www.w3.org/2000/svg">
<path d="M6.74081 1.40625C3.8372 1.40625 1.48145 3.64842 1.48145 6.40996C1.48145 9.58749 4.98769 14.623 6.27514 16.3622C6.32858 16.4356 6.39863 16.4954 6.47955 16.5366C6.56048 16.5778 6.65001 16.5992 6.74081 16.5992C6.83162 16.5992 6.92114 16.5778 7.00207 16.5366C7.083 16.4954 7.15305 16.4356 7.20649 16.3622C8.49394 14.6237 12.0002 9.59005 12.0002 6.40996C12.0002 3.64842 9.64442 1.40625 6.74081 1.40625Z" stroke="#525252" stroke-linecap="round" stroke-linejoin="round"/>
<path d="M6.74092 8.41872C7.70914 8.41872 8.49404 7.63382 8.49404 6.6656C8.49404 5.69738 7.70914 4.91248 6.74092 4.91248C5.77269 4.91248 4.98779 5.69738 4.98779 6.6656C4.98779 7.63382 5.77269 8.41872 6.74092 8.41872Z" stroke="#525252" stroke-linecap="round" stroke-linejoin="round"/>
</svg>
