<svg width="13" height="9" viewBox="0 0 13 9" fill="none" xmlns="http://www.w3.org/2000/svg">
<path d="M12.701 0H0.299C0.212333 0 0.140833 0.0267859 0.0845 0.0803566C0.0281667 0.133928 0 0.201923 0 0.284341V8.71566C0 8.79808 0.0281667 8.86607 0.0845 8.91964C0.140833 8.97321 0.212333 9 0.299 9H12.701C12.7877 9 12.8592 8.97321 12.9155 8.91964C12.9718 8.86607 13 8.79808 13 8.71566V0.284341C13 0.201923 12.9718 0.133928 12.9155 0.0803566C12.8592 0.0267859 12.7877 0 12.701 0ZM12.415 7.75137L8.749 4.27747L8.333 4.67308L12.285 8.43132H0.715L4.667 4.67308L4.251 4.27747L0.598 7.75137V0.568681H12.415V7.75137ZM11.817 0.568681L6.5 5.61264L1.183 0.568681H0.598V0.791208L6.292 6.21841C6.35267 6.26786 6.422 6.29258 6.5 6.29258C6.578 6.29258 6.64733 6.26786 6.708 6.21841L12.415 0.791208V0.568681H11.817Z" fill="white"/>
</svg>
