<svg width="57" height="57" viewBox="0 0 57 57" fill="none" xmlns="http://www.w3.org/2000/svg">
<g clip-path="url(#clip0_42_2067)">
<path d="M34.3081 42.1404C35.9289 40.1531 37.5498 38.2561 39.0806 36.3139C40.2962 34.7331 41.6469 34.2363 43.5829 35.0944C47.3199 36.7656 51.1469 38.3916 54.9289 39.9724C56.5948 40.6951 57.3602 41.7791 56.8649 43.7212C55.9645 47.199 55.1991 50.722 54.4337 54.2902C53.9834 56.3678 52.8128 57.0905 50.7867 57.0905C23.4573 57.0453 0 33.604 0 6.23311C0 4.15546 0.720379 2.98113 2.74645 2.52947C6.16825 1.80681 9.59005 0.948646 13.0118 0.180817C15.0379 -0.316014 16.4336 0.225983 17.2441 2.3488C18.6848 6.05245 20.3057 9.71093 21.9265 13.3242C22.737 15.0857 22.4668 16.4859 20.891 17.7054C19.1801 19.0604 17.4692 20.3702 15.8934 21.8607C15.4882 22.2672 15.218 23.3512 15.4431 23.848C18.5498 31.2101 26.3839 38.7981 34.3081 42.1404Z" fill="white"/>
</g>
<defs>
<clipPath id="clip0_42_2067">
<rect width="57" height="57" fill="white"/>
</clipPath>
</defs>
</svg>
