<svg width="8" height="12" viewBox="0 0 8 12" fill="none" xmlns="http://www.w3.org/2000/svg">
<path d="M0.000385831 10.1378V1.05223C0.000385831 0.761315 0.101088 0.511425 0.302492 0.302562C0.503895 0.0936985 0.753785 -0.00700283 1.05216 0.000455856H6.64671C6.93763 0.000455856 7.18379 0.101158 7.38519 0.302562C7.5866 0.503965 7.69103 0.753856 7.69849 1.05223V10.1378C7.69849 10.4287 7.59405 10.6786 7.38519 10.8874C7.17633 11.0963 6.93017 11.197 6.64671 11.1896H1.05216C0.761245 11.1896 0.511355 11.0889 0.302492 10.8874C0.0936283 10.686 -0.00707357 10.4362 0.000385831 10.1378ZM0.705299 10.1378C0.705299 10.2422 0.735137 10.328 0.794812 10.3951C0.854487 10.4623 0.94027 10.4958 1.05216 10.4958H6.64671C6.74368 10.4958 6.82574 10.4623 6.89287 10.3951C6.96001 10.328 6.99357 10.2422 6.99357 10.1378V9.44406H0.705299V10.1378ZM0.705299 9.086H6.99357V2.10401H0.705299V9.086ZM0.705299 1.74596H6.99357V1.05223C6.99357 0.9478 6.96001 0.862017 6.89287 0.794882C6.82574 0.727748 6.74368 0.69791 6.64671 0.705369H1.05216C0.94773 0.705369 0.861947 0.735207 0.794812 0.794882C0.727677 0.854557 0.69784 0.94034 0.705299 1.05223V1.74596ZM3.14452 1.22007C3.14452 1.10818 3.2042 1.05223 3.32355 1.05223H4.37532C4.48721 1.05223 4.54316 1.10818 4.54316 1.22007C4.54316 1.33196 4.48721 1.39163 4.37532 1.39909H3.32355C3.2042 1.39909 3.14452 1.33942 3.14452 1.22007ZM3.50257 9.96994C3.50257 9.85059 3.55852 9.79092 3.67041 9.79092H4.01727C4.13662 9.79092 4.1963 9.85059 4.1963 9.96994C4.1963 10.0893 4.13662 10.1452 4.01727 10.1378H3.67041C3.55852 10.1378 3.50257 10.0818 3.50257 9.96994Z" fill="white"/>
</svg>
