<svg width="7" height="18" viewBox="0 0 7 18" fill="none" xmlns="http://www.w3.org/2000/svg">
<g clip-path="url(#clip0_4_431)">
<path d="M5.59742 9.57702C5.59742 9.65179 5.57072 9.71588 5.51731 9.76929L1.33546 13.9511C1.28205 14.0045 1.21796 14.0312 1.14319 14.0312C1.06842 14.0312 0.998988 14.0045 0.934899 13.9511L0.486271 13.5025C0.422182 13.4384 0.390137 13.369 0.390137 13.2942C0.390137 13.2194 0.422182 13.15 0.486271 13.0859L3.99518 9.57702L0.486271 6.05209C0.422182 5.99868 0.390137 5.93459 0.390137 5.85982C0.390137 5.78505 0.422182 5.71562 0.486271 5.65153L0.934899 5.2029C0.988307 5.13881 1.05774 5.10677 1.14319 5.10677C1.22864 5.10677 1.29273 5.13881 1.33546 5.2029L5.51731 9.36873C5.57072 9.42214 5.59742 9.49157 5.59742 9.57702Z" fill="white"/>
</g>
<defs>
<clipPath id="clip0_4_431">
<rect width="5.72" height="18" fill="white" transform="matrix(1 0 0 -1 0.390137 18)"/>
</clipPath>
</defs>
</svg>
