<svg width="15" height="12" viewBox="0 0 15 12" fill="none" xmlns="http://www.w3.org/2000/svg">
<path d="M14.22 1.64798C13.8253 2.22398 13.3453 2.71998 12.78 3.13598V3.50398C12.78 4.28265 12.668 5.05598 12.444 5.82398C12.22 6.59198 11.8787 7.33332 11.42 8.04798C10.9613 8.76265 10.412 9.38665 9.77201 9.91998C9.13201 10.4533 8.36401 10.8907 7.46801 11.232C6.57201 11.5733 5.60667 11.7333 4.57201 11.712C2.96134 11.712 1.48934 11.28 0.156006 10.416C0.358673 10.4373 0.588006 10.448 0.844006 10.448C2.18801 10.448 3.38267 10.0373 4.42801 9.21598C3.79867 9.20532 3.23867 9.01332 2.74801 8.63998C2.25734 8.26665 1.91601 7.79198 1.72401 7.21598C1.92667 7.24798 2.10801 7.26398 2.26801 7.26398C2.52401 7.26398 2.78001 7.23198 3.03601 7.16798C2.36401 7.02932 1.80934 6.69865 1.37201 6.17598C0.934673 5.65332 0.716006 5.03998 0.716006 4.33598V4.30398C1.12134 4.52798 1.55867 4.65065 2.02801 4.67198C1.63334 4.40532 1.31867 4.06398 1.08401 3.64798C0.849339 3.23198 0.732006 2.76798 0.732006 2.25598C0.732006 1.74398 0.865339 1.26398 1.13201 0.815984C1.85734 1.70132 2.73201 2.41065 3.75601 2.94398C4.78001 3.47732 5.88934 3.77065 7.08401 3.82398C7.03067 3.59998 7.00401 3.38132 7.00401 3.16798C7.00401 2.36798 7.28667 1.69065 7.85201 1.13598C8.41734 0.581317 9.09467 0.298651 9.88401 0.287984C10.7267 0.287984 11.4307 0.591984 11.996 1.19998C12.6467 1.07198 13.26 0.837317 13.836 0.495984C13.612 1.17865 13.1853 1.71198 12.556 2.09598C13.1107 2.03198 13.6653 1.88265 14.22 1.64798Z" fill="white"/>
</svg>
