<svg width="23" height="23" viewBox="0 0 23 23" fill="none" xmlns="http://www.w3.org/2000/svg">
<path d="M15.1964 0.821411H1.23214C0.55277 0.821411 0 1.37418 0 2.05355V20.9464C0 21.6258 0.55277 22.1786 1.23214 22.1786H15.1964C15.8758 22.1786 16.4286 21.6258 16.4286 20.9464V2.05355C16.4286 1.37418 15.8758 0.821411 15.1964 0.821411ZM15.6071 20.9464C15.607 21.0553 15.5637 21.1597 15.4867 21.2367C15.4097 21.3137 15.3053 21.357 15.1964 21.3571H8.625V4.51784C8.625 4.40891 8.58173 4.30445 8.5047 4.22742C8.42768 4.1504 8.32321 4.10713 8.21428 4.10713C8.10536 4.10713 8.00089 4.1504 7.92387 4.22742C7.84684 4.30445 7.80357 4.40891 7.80357 4.51784V21.3571H1.23214C1.12326 21.357 1.01887 21.3137 0.941874 21.2367C0.86488 21.1597 0.821564 21.0553 0.821429 20.9464V2.05355C0.821564 1.94467 0.86488 1.84028 0.941874 1.76329C1.01887 1.68629 1.12326 1.64298 1.23214 1.64284H7.80357V2.87498C7.80357 2.98391 7.84684 3.08838 7.92387 3.1654C8.00089 3.24243 8.10536 3.2857 8.21428 3.2857C8.32321 3.2857 8.42768 3.24243 8.5047 3.1654C8.58173 3.08838 8.625 2.98391 8.625 2.87498V1.64284H15.1964C15.3053 1.64298 15.4097 1.68629 15.4867 1.76329C15.5637 1.84028 15.607 1.94467 15.6071 2.05355V20.9464ZM22.2989 15.3167L20.9464 16.6691V7.39284C20.9464 7.28391 20.9032 7.17945 20.8261 7.10242C20.7491 7.0254 20.6446 6.98213 20.5357 6.98213C20.4268 6.98213 20.3223 7.0254 20.2453 7.10242C20.1683 7.17945 20.125 7.28391 20.125 7.39284V16.6691L18.7726 15.3167C18.6121 15.1564 18.3516 15.1564 18.1917 15.3167C18.0318 15.477 18.0313 15.7377 18.1917 15.8976L20.2453 17.9511C20.2481 17.9539 20.2511 17.9563 20.254 17.959C20.2609 17.9655 20.2679 17.9721 20.2753 17.9782C20.2807 17.9827 20.2866 17.9867 20.2921 17.9908C20.2972 17.9946 20.3022 17.9986 20.3075 18.0021C20.3138 18.0063 20.3202 18.0099 20.3267 18.0138C20.3318 18.0168 20.3367 18.02 20.342 18.0228C20.3483 18.0262 20.3549 18.0291 20.3615 18.0322C20.367 18.035 20.3727 18.0377 20.3785 18.0401C20.3847 18.0428 20.391 18.0451 20.3974 18.047C20.4037 18.0488 20.41 18.0518 20.4165 18.0537C20.423 18.0557 20.4291 18.0569 20.4354 18.0586C20.4421 18.0603 20.4487 18.0622 20.4559 18.0635C20.4631 18.0647 20.4705 18.0658 20.4778 18.0668C20.4837 18.0677 20.4896 18.0688 20.4957 18.0694C20.5092 18.0707 20.5227 18.0714 20.5368 18.0714C20.5503 18.0714 20.5639 18.0707 20.5774 18.0694C20.5834 18.0687 20.5893 18.0676 20.5953 18.0668C20.6026 18.0658 20.6099 18.0649 20.6171 18.0635C20.624 18.0621 20.6305 18.0602 20.6377 18.0586C20.644 18.057 20.6504 18.0556 20.6566 18.0537C20.6628 18.0518 20.6693 18.0493 20.6757 18.047C20.682 18.0448 20.6883 18.0427 20.6946 18.0401C20.7004 18.0377 20.706 18.0349 20.7116 18.0322C20.7181 18.0291 20.7246 18.0262 20.7311 18.0228C20.7363 18.02 20.7414 18.0168 20.7464 18.0138C20.7528 18.01 20.7592 18.0063 20.7656 18.0021C20.7709 17.9985 20.7758 17.9946 20.781 17.9908C20.7861 17.9867 20.7924 17.9827 20.7978 17.9782C20.8051 17.9721 20.8122 17.9656 20.8191 17.959C20.8219 17.9563 20.825 17.9538 20.8278 17.9511L22.8814 15.8976C23.0417 15.7371 23.0417 15.4766 22.8814 15.3167C22.721 15.1568 22.4604 15.1564 22.3005 15.3167H22.2989ZM18.4821 7.80355C18.5361 7.80364 18.5895 7.79306 18.6394 7.77241C18.6892 7.75177 18.7345 7.72147 18.7726 7.68327L20.5357 5.92017L22.2989 7.68332C22.3791 7.76351 22.4837 7.80361 22.5893 7.80361C22.6432 7.80369 22.6967 7.79311 22.7465 7.77246C22.7964 7.75182 22.8416 7.72152 22.8797 7.68332C23.0401 7.52288 23.0401 7.26234 22.8797 7.10247L20.8261 5.04889C20.6657 4.88856 20.4052 4.88856 20.2453 5.04889L18.1917 7.10247C18.0313 7.2629 18.0313 7.52345 18.1917 7.68332C18.2298 7.72149 18.2751 7.75176 18.3249 7.7724C18.3748 7.79303 18.4282 7.80362 18.4821 7.80355Z" fill="#343434"/>
</svg>
